<mxfile host="app.diagrams.net" modified="2021-05-05T17:40:04.741Z" agent="5.0 (Windows NT 10.0; Win64; x64) AppleWebKit/537.36 (KHTML, like Gecko) Chrome/88.0.4324.182 Safari/537.36" etag="SWSSpyBphVMgK0jjG_GD" version="14.6.10" type="github">
  <diagram id="vFWC03K5JibOjdLcUImf" name="第 1 页">
    <mxGraphModel dx="1422" dy="762" grid="1" gridSize="10" guides="1" tooltips="1" connect="1" arrows="1" fold="1" page="1" pageScale="1" pageWidth="827" pageHeight="1169" math="0" shadow="0">
      <root>
        <mxCell id="0" />
        <mxCell id="1" parent="0" />
        <mxCell id="GfoEtZHWI8R1b00jcY76-1" value="" style="rounded=0;whiteSpace=wrap;html=1;dashed=1;" vertex="1" parent="1">
          <mxGeometry x="170" y="320" width="436" height="40" as="geometry" />
        </mxCell>
        <mxCell id="GfoEtZHWI8R1b00jcY76-2" value="" style="rounded=0;whiteSpace=wrap;html=1;dashed=1;" vertex="1" parent="1">
          <mxGeometry x="170" y="370" width="436" height="60" as="geometry" />
        </mxCell>
        <mxCell id="GfoEtZHWI8R1b00jcY76-3" value="展现层" style="text;html=1;strokeColor=none;fillColor=none;align=center;verticalAlign=middle;whiteSpace=wrap;rounded=0;dashed=1;" vertex="1" parent="1">
          <mxGeometry x="186" y="330" width="40" height="20" as="geometry" />
        </mxCell>
        <mxCell id="GfoEtZHWI8R1b00jcY76-4" value="应用层" style="text;html=1;strokeColor=none;fillColor=none;align=center;verticalAlign=middle;whiteSpace=wrap;rounded=0;dashed=1;" vertex="1" parent="1">
          <mxGeometry x="186" y="390" width="40" height="20" as="geometry" />
        </mxCell>
        <mxCell id="GfoEtZHWI8R1b00jcY76-5" value="" style="rounded=0;whiteSpace=wrap;html=1;dashed=1;" vertex="1" parent="1">
          <mxGeometry x="170" y="450" width="436" height="90" as="geometry" />
        </mxCell>
        <mxCell id="GfoEtZHWI8R1b00jcY76-6" value="业务层" style="text;html=1;strokeColor=none;fillColor=none;align=center;verticalAlign=middle;whiteSpace=wrap;rounded=0;dashed=1;" vertex="1" parent="1">
          <mxGeometry x="186" y="470" width="40" height="20" as="geometry" />
        </mxCell>
        <mxCell id="GfoEtZHWI8R1b00jcY76-7" value="浏览器" style="rounded=0;whiteSpace=wrap;html=1;" vertex="1" parent="1">
          <mxGeometry x="286" y="330" width="290" height="20" as="geometry" />
        </mxCell>
        <mxCell id="GfoEtZHWI8R1b00jcY76-8" value="个人中心" style="rounded=0;whiteSpace=wrap;html=1;" vertex="1" parent="1">
          <mxGeometry x="531.5" y="385" width="53" height="30" as="geometry" />
        </mxCell>
        <mxCell id="GfoEtZHWI8R1b00jcY76-9" value="CICD自动化管理" style="rounded=0;whiteSpace=wrap;html=1;" vertex="1" parent="1">
          <mxGeometry x="336" y="385" width="173.75" height="30" as="geometry" />
        </mxCell>
        <mxCell id="GfoEtZHWI8R1b00jcY76-10" value="系统管理" style="rounded=0;whiteSpace=wrap;html=1;" vertex="1" parent="1">
          <mxGeometry x="270.65" y="385" width="53" height="30" as="geometry" />
        </mxCell>
        <mxCell id="GfoEtZHWI8R1b00jcY76-11" value="持续集成&lt;span style=&quot;color: rgba(0 , 0 , 0 , 0) ; font-family: monospace ; font-size: 0px&quot;&gt;%3CmxGraphModel%3E%3Croot%3E%3CmxCell%20id%3D%220%22%2F%3E%3CmxCell%20id%3D%221%22%20parent%3D%220%22%2F%3E%3CmxCell%20id%3D%222%22%20value%3D%22%E7%94%A8%E4%BE%8B%E7%AE%A1%E7%90%86%22%20style%3D%22rounded%3D0%3BwhiteSpace%3Dwrap%3Bhtml%3D1%3B%22%20vertex%3D%221%22%20parent%3D%221%22%3E%3CmxGeometry%20x%3D%22376.73%22%20y%3D%22760%22%20width%3D%2220%22%20height%3D%2270%22%20as%3D%22geometry%22%2F%3E%3C%2FmxCell%3E%3C%2Froot%3E%3C%2FmxGraphModel%3E&lt;/span&gt;" style="rounded=0;whiteSpace=wrap;html=1;" vertex="1" parent="1">
          <mxGeometry x="317.83000000000004" y="460" width="20" height="70" as="geometry" />
        </mxCell>
        <mxCell id="GfoEtZHWI8R1b00jcY76-12" value="持续交付&lt;span style=&quot;color: rgba(0 , 0 , 0 , 0) ; font-family: monospace ; font-size: 0px&quot;&gt;%3CmxGraphModel%3E%3Croot%3E%3CmxCell%20id%3D%220%22%2F%3E%3CmxCell%20id%3D%221%22%20parent%3D%220%22%2F%3E%3CmxCell%20id%3D%222%22%20value%3D%22%E7%94%A8%E4%BE%8B%E7%AE%A1%E7%90%86%22%20style%3D%22rounded%3D0%3BwhiteSpace%3Dwrap%3Bhtml%3D1%3B%22%20vertex%3D%221%22%20parent%3D%221%22%3E%3CmxGeometry%20x%3D%22376.73%22%20y%3D%22760%22%20width%3D%2220%22%20height%3D%2270%22%20as%3D%22geometry%22%2F%3E%3C%2FmxCell%3E%3C%2Froot%3E%3C%2FmxGraphModel%3E&lt;/span&gt;" style="rounded=0;whiteSpace=wrap;html=1;" vertex="1" parent="1">
          <mxGeometry x="279" y="460" width="20" height="70" as="geometry" />
        </mxCell>
        <mxCell id="GfoEtZHWI8R1b00jcY76-13" value="" style="group" vertex="1" connectable="0" parent="1">
          <mxGeometry x="356" y="460" width="217.73000000000002" height="70" as="geometry" />
        </mxCell>
        <mxCell id="GfoEtZHWI8R1b00jcY76-14" value="任务调度" style="rounded=0;whiteSpace=wrap;html=1;" vertex="1" parent="GfoEtZHWI8R1b00jcY76-13">
          <mxGeometry width="20" height="70" as="geometry" />
        </mxCell>
        <mxCell id="GfoEtZHWI8R1b00jcY76-15" value="代码管理" style="rounded=0;whiteSpace=wrap;html=1;" vertex="1" parent="GfoEtZHWI8R1b00jcY76-13">
          <mxGeometry x="37.73000000000002" width="20" height="70" as="geometry" />
        </mxCell>
        <mxCell id="GfoEtZHWI8R1b00jcY76-16" value="用户管理&lt;span style=&quot;color: rgba(0 , 0 , 0 , 0) ; font-family: monospace ; font-size: 0px&quot;&gt;%3CmxGraphModel%3E%3Croot%3E%3CmxCell%20id%3D%220%22%2F%3E%3CmxCell%20id%3D%221%22%20parent%3D%220%22%2F%3E%3CmxCell%20id%3D%222%22%20value%3D%22%E6%96%87%E4%BB%B6%E7%AE%A1%E7%90%86%22%20style%3D%22rounded%3D0%3BwhiteSpace%3Dwrap%3Bhtml%3D1%3B%22%20vertex%3D%221%22%20parent%3D%221%22%3E%3CmxGeometry%20x%3D%22680%22%20y%3D%22720%22%20width%3D%2220%22%20height%3D%2270%22%20as%3D%22geometry%22%2F%3E%3C%2FmxCell%3E%3C%2Froot%3E%3C%2FmxGraphModel%3E&lt;/span&gt;" style="rounded=0;whiteSpace=wrap;html=1;" vertex="1" parent="GfoEtZHWI8R1b00jcY76-13">
          <mxGeometry x="117.73000000000002" width="20" height="70" as="geometry" />
        </mxCell>
        <mxCell id="GfoEtZHWI8R1b00jcY76-17" value="权限管理" style="rounded=0;whiteSpace=wrap;html=1;" vertex="1" parent="GfoEtZHWI8R1b00jcY76-13">
          <mxGeometry x="197.73000000000002" width="20" height="70" as="geometry" />
        </mxCell>
        <mxCell id="GfoEtZHWI8R1b00jcY76-18" value="文件管理" style="rounded=0;whiteSpace=wrap;html=1;" vertex="1" parent="GfoEtZHWI8R1b00jcY76-13">
          <mxGeometry x="77.73000000000002" width="20" height="70" as="geometry" />
        </mxCell>
        <mxCell id="GfoEtZHWI8R1b00jcY76-19" value="用例管理" style="rounded=0;whiteSpace=wrap;html=1;" vertex="1" parent="GfoEtZHWI8R1b00jcY76-13">
          <mxGeometry x="157.73000000000002" width="20" height="70" as="geometry" />
        </mxCell>
        <mxCell id="GfoEtZHWI8R1b00jcY76-20" value="" style="rounded=0;whiteSpace=wrap;html=1;dashed=1;" vertex="1" parent="1">
          <mxGeometry x="170" y="552" width="436" height="60" as="geometry" />
        </mxCell>
        <mxCell id="GfoEtZHWI8R1b00jcY76-21" value="数据持久层" style="text;html=1;strokeColor=none;fillColor=none;align=center;verticalAlign=middle;whiteSpace=wrap;rounded=0;dashed=1;" vertex="1" parent="1">
          <mxGeometry x="176" y="572" width="70" height="20" as="geometry" />
        </mxCell>
        <mxCell id="GfoEtZHWI8R1b00jcY76-22" value="" style="group" vertex="1" connectable="0" parent="1">
          <mxGeometry x="473.5" y="562" width="92.5" height="40" as="geometry" />
        </mxCell>
        <mxCell id="GfoEtZHWI8R1b00jcY76-23" value="" style="shape=cylinder3;whiteSpace=wrap;html=1;boundedLbl=1;backgroundOutline=1;size=15;rounded=1;rotation=-90;" vertex="1" parent="GfoEtZHWI8R1b00jcY76-22">
          <mxGeometry x="26.25" y="-26.25" width="40" height="92.5" as="geometry" />
        </mxCell>
        <mxCell id="GfoEtZHWI8R1b00jcY76-24" value="文件系统" style="text;html=1;strokeColor=none;fillColor=none;align=center;verticalAlign=middle;whiteSpace=wrap;rounded=0;" vertex="1" parent="GfoEtZHWI8R1b00jcY76-22">
          <mxGeometry x="33.25" y="10" width="51.5" height="20" as="geometry" />
        </mxCell>
        <mxCell id="GfoEtZHWI8R1b00jcY76-25" value="" style="group" vertex="1" connectable="0" parent="1">
          <mxGeometry x="290.875" y="561.995" width="86.25" height="40" as="geometry" />
        </mxCell>
        <mxCell id="GfoEtZHWI8R1b00jcY76-26" value="" style="shape=cylinder3;whiteSpace=wrap;html=1;boundedLbl=1;backgroundOutline=1;size=15;rounded=1;rotation=-90;" vertex="1" parent="GfoEtZHWI8R1b00jcY76-25">
          <mxGeometry x="23.125" y="-23.125" width="40" height="86.25" as="geometry" />
        </mxCell>
        <mxCell id="GfoEtZHWI8R1b00jcY76-27" value="数据库" style="text;html=1;strokeColor=none;fillColor=none;align=center;verticalAlign=middle;whiteSpace=wrap;rounded=0;" vertex="1" parent="GfoEtZHWI8R1b00jcY76-25">
          <mxGeometry x="32.775000000000006" y="10.004999999999995" width="40" height="20" as="geometry" />
        </mxCell>
        <mxCell id="GfoEtZHWI8R1b00jcY76-28" value="" style="rounded=0;whiteSpace=wrap;html=1;dashed=1;" vertex="1" parent="1">
          <mxGeometry x="170" y="623" width="436" height="60" as="geometry" />
        </mxCell>
        <mxCell id="GfoEtZHWI8R1b00jcY76-29" value="基础层" style="text;html=1;strokeColor=none;fillColor=none;align=center;verticalAlign=middle;whiteSpace=wrap;rounded=0;dashed=1;" vertex="1" parent="1">
          <mxGeometry x="186" y="643" width="50" height="20" as="geometry" />
        </mxCell>
        <mxCell id="GfoEtZHWI8R1b00jcY76-30" value="网络/操作系统" style="rounded=0;whiteSpace=wrap;html=1;" vertex="1" parent="1">
          <mxGeometry x="286" y="638" width="100" height="30" as="geometry" />
        </mxCell>
        <mxCell id="GfoEtZHWI8R1b00jcY76-31" value="服务器" style="rounded=0;whiteSpace=wrap;html=1;" vertex="1" parent="1">
          <mxGeometry x="476.95" y="638" width="70" height="30" as="geometry" />
        </mxCell>
        <mxCell id="GfoEtZHWI8R1b00jcY76-32" value="CI/CD任务管理" style="rounded=0;whiteSpace=wrap;html=1;" vertex="1" parent="1">
          <mxGeometry x="336" y="385" width="173.75" height="30" as="geometry" />
        </mxCell>
      </root>
    </mxGraphModel>
  </diagram>
</mxfile>
